HIERARCHY
ROOT mixamorig:Hips
{
	OFFSET 0.000000 106.130402 -0.000000
	CHANNELS 6 Xposition Yposition Zposition Xrotation Yrotation Zrotation
	JOINT mixamorig:Spine
	{
		OFFSET -0.038117 9.490501 -1.392100
		CHANNELS 6 Xposition Yposition Zposition Xrotation Yrotation Zrotation
		JOINT mixamorig:Spine1
		{
			OFFSET -0.044226 11.072235 -1.624061
			CHANNELS 3 Xrotation Yrotation Zrotation
			JOINT mixamorig:Spine2
			{
				OFFSET -0.050544 12.653999 -1.856072
				CHANNELS 3 Xrotation Yrotation Zrotation
				JOINT mixamorig:Neck
				{
					OFFSET -0.056883 14.235809 -2.088087
					CHANNELS 6 Xposition Yposition Zposition Xrotation Yrotation Zrotation
					JOINT mixamorig:Head
					{
						OFFSET 0.000004 3.280197 0.313303
						CHANNELS 6 Xposition Yposition Zposition Xrotation Yrotation Zrotation
						JOINT mixamorig:HeadTop_End
						{
							OFFSET 0.000030 25.653503 2.450522
							CHANNELS 6 Xposition Yposition Zposition Xrotation Yrotation Zrotation
							End Site
							{
								OFFSET 0.000031 25.770279 0.000023
							}
						}
					}
				}
				JOINT mixamorig:LeftShoulder
				{
					OFFSET 6.728814 11.756592 -2.058488
					CHANNELS 6 Xposition Yposition Zposition Xrotation Yrotation Zrotation
					JOINT mixamorig:LeftArm
					{
						OFFSET 14.094160 -3.181030 0.059262
						CHANNELS 3 Xrotation Yrotation Zrotation
						JOINT mixamorig:LeftForeArm
						{
							OFFSET 23.160299 0.000000 0.000000
							CHANNELS 3 Xrotation Yrotation Zrotation
							JOINT mixamorig:LeftHand
							{
								OFFSET 24.071800 0.000000 0.000000
								CHANNELS 3 Xrotation Yrotation Zrotation
								JOINT mixamorig:LeftHandThumb1
								{
									OFFSET 4.173401 -1.926498 1.509006
									CHANNELS 6 Xposition Yposition Zposition Xrotation Yrotation Zrotation
									JOINT mixamorig:LeftHandThumb2
									{
										OFFSET 2.998001 -1.730896 1.730896
										CHANNELS 3 Xrotation Yrotation Zrotation
										JOINT mixamorig:LeftHandThumb3
										{
											OFFSET 3.648811 -2.106644 2.106645
											CHANNELS 3 Xrotation Yrotation Zrotation
											JOINT mixamorig:LeftHandThumb4
											{
												OFFSET 2.967018 -1.712997 1.713007
												CHANNELS 3 Xrotation Yrotation Zrotation
												End Site
												{
													OFFSET 2.967010 -1.713013 1.713006
												}
											}
										}
									}
								}
								JOINT mixamorig:LeftHandIndex1
								{
									OFFSET 14.669403 -0.398788 2.855501
									CHANNELS 6 Xposition Yposition Zposition Xrotation Yrotation Zrotation
									JOINT mixamorig:LeftHandIndex2
									{
										OFFSET 3.248596 0.000000 0.000000
										CHANNELS 3 Xrotation Yrotation Zrotation
										JOINT mixamorig:LeftHandIndex3
										{
											OFFSET 2.659599 0.000000 0.000000
											CHANNELS 3 Xrotation Yrotation Zrotation
											JOINT mixamorig:LeftHandIndex4
											{
												OFFSET 3.633202 0.000000 0.000000
												CHANNELS 3 Xrotation Yrotation Zrotation
												End Site
												{
													OFFSET 3.633194 0.000000 0.000000
												}
											}
										}
									}
								}
								JOINT mixamorig:LeftHandMiddle1
								{
									OFFSET 14.409798 0.000000 0.000000
									CHANNELS 6 Xposition Yposition Zposition Xrotation Yrotation Zrotation
									JOINT mixamorig:LeftHandMiddle2
									{
										OFFSET 3.259102 0.000000 0.000000
										CHANNELS 3 Xrotation Yrotation Zrotation
										JOINT mixamorig:LeftHandMiddle3
										{
											OFFSET 2.639900 0.000000 0.000000
											CHANNELS 3 Xrotation Yrotation Zrotation
											JOINT mixamorig:LeftHandMiddle4
											{
												OFFSET 3.673904 0.000000 0.000000
												CHANNELS 3 Xrotation Yrotation Zrotation
												End Site
												{
													OFFSET 3.673904 0.000000 0.000000
												}
											}
										}
									}
								}
								JOINT mixamorig:LeftHandRing1
								{
									OFFSET 13.191498 0.321991 -3.304901
									CHANNELS 6 Xposition Yposition Zposition Xrotation Yrotation Zrotation
									JOINT mixamorig:LeftHandRing2
									{
										OFFSET 2.717606 0.000000 0.000000
										CHANNELS 3 Xrotation Yrotation Zrotation
										JOINT mixamorig:LeftHandRing3
										{
											OFFSET 2.134499 0.000000 0.000000
											CHANNELS 3 Xrotation Yrotation Zrotation
											JOINT mixamorig:LeftHandRing4
											{
												OFFSET 2.786896 0.000000 0.000000
												CHANNELS 3 Xrotation Yrotation Zrotation
												End Site
												{
													OFFSET 2.786896 0.000000 0.000000
												}
											}
										}
									}
								}
								JOINT mixamorig:LeftHandPinky1
								{
									OFFSET 11.636398 -0.516617 -5.614198
									CHANNELS 6 Xposition Yposition Zposition Xrotation Yrotation Zrotation
									JOINT mixamorig:LeftHandPinky2
									{
										OFFSET 1.559402 0.000000 0.000000
										CHANNELS 3 Xrotation Yrotation Zrotation
										JOINT mixamorig:LeftHandPinky3
										{
											OFFSET 1.540604 0.000000 0.000000
											CHANNELS 3 Xrotation Yrotation Zrotation
											JOINT mixamorig:LeftHandPinky4
											{
												OFFSET 1.668694 0.000000 0.000000
												CHANNELS 3 Xrotation Yrotation Zrotation
												End Site
												{
													OFFSET 1.668701 0.000000 0.000000
												}
											}
										}
									}
								}
							}
						}
					}
				}
				JOINT mixamorig:RightShoulder
				{
					OFFSET -6.728786 11.756714 -2.058491
					CHANNELS 6 Xposition Yposition Zposition Xrotation Yrotation Zrotation
					JOINT mixamorig:RightArm
					{
						OFFSET -14.094133 -3.181152 0.059256
						CHANNELS 3 Xrotation Yrotation Zrotation
						JOINT mixamorig:RightForeArm
						{
							OFFSET -23.160299 0.000000 0.000000
							CHANNELS 3 Xrotation Yrotation Zrotation
							JOINT mixamorig:RightHand
							{
								OFFSET -24.071701 0.000000 0.000000
								CHANNELS 3 Xrotation Yrotation Zrotation
								JOINT mixamorig:RightHandThumb1
								{
									OFFSET -4.173401 -1.930939 1.503952
									CHANNELS 6 Xposition Yposition Zposition Xrotation Yrotation Zrotation
									JOINT mixamorig:RightHandThumb2
									{
										OFFSET -2.998001 -1.730896 1.730896
										CHANNELS 3 Xrotation Yrotation Zrotation
										JOINT mixamorig:RightHandThumb3
										{
											OFFSET -3.648582 -2.106506 2.106510
											CHANNELS 3 Xrotation Yrotation Zrotation
											JOINT mixamorig:RightHandThumb4
											{
												OFFSET -2.967010 -1.713013 1.713007
												CHANNELS 3 Xrotation Yrotation Zrotation
												End Site
												{
													OFFSET -2.967010 -1.713013 1.713006
												}
											}
										}
									}
								}
								JOINT mixamorig:RightHandIndex1
								{
									OFFSET -14.669403 -0.406464 2.854446
									CHANNELS 6 Xposition Yposition Zposition Xrotation Yrotation Zrotation
									JOINT mixamorig:RightHandIndex2
									{
										OFFSET -3.248596 0.000000 0.000000
										CHANNELS 3 Xrotation Yrotation Zrotation
										JOINT mixamorig:RightHandIndex3
										{
											OFFSET -2.659599 0.000000 0.000000
											CHANNELS 3 Xrotation Yrotation Zrotation
											JOINT mixamorig:RightHandIndex4
											{
												OFFSET -3.633102 0.000000 0.000000
												CHANNELS 3 Xrotation Yrotation Zrotation
												End Site
												{
													OFFSET -3.633102 0.000000 0.000000
												}
											}
										}
									}
								}
								JOINT mixamorig:RightHandMiddle1
								{
									OFFSET -14.409798 0.000000 0.000000
									CHANNELS 6 Xposition Yposition Zposition Xrotation Yrotation Zrotation
									JOINT mixamorig:RightHandMiddle2
									{
										OFFSET -3.259102 0.000000 0.000000
										CHANNELS 3 Xrotation Yrotation Zrotation
										JOINT mixamorig:RightHandMiddle3
										{
											OFFSET -2.639801 0.000000 0.000000
											CHANNELS 3 Xrotation Yrotation Zrotation
											JOINT mixamorig:RightHandMiddle4
											{
												OFFSET -3.673897 0.000000 0.000000
												CHANNELS 3 Xrotation Yrotation Zrotation
												End Site
												{
													OFFSET -3.673904 0.000000 0.000000
												}
											}
										}
									}
								}
								JOINT mixamorig:RightHandRing1
								{
									OFFSET -13.191498 0.330658 -3.304046
									CHANNELS 6 Xposition Yposition Zposition Xrotation Yrotation Zrotation
									JOINT mixamorig:RightHandRing2
									{
										OFFSET -2.717606 0.000000 0.000000
										CHANNELS 3 Xrotation Yrotation Zrotation
										JOINT mixamorig:RightHandRing3
										{
											OFFSET -2.134499 0.000000 0.000000
											CHANNELS 3 Xrotation Yrotation Zrotation
											JOINT mixamorig:RightHandRing4
											{
												OFFSET -2.786797 0.000000 0.000000
												CHANNELS 3 Xrotation Yrotation Zrotation
												End Site
												{
													OFFSET -2.786804 0.000000 0.000000
												}
											}
										}
									}
								}
								JOINT mixamorig:RightHandPinky1
								{
									OFFSET -11.636398 -0.501495 -5.923333
									CHANNELS 6 Xposition Yposition Zposition Xrotation Yrotation Zrotation
									JOINT mixamorig:RightHandPinky2
									{
										OFFSET -1.559303 0.000000 0.000000
										CHANNELS 3 Xrotation Yrotation Zrotation
										JOINT mixamorig:RightHandPinky3
										{
											OFFSET -1.540596 0.000000 0.000000
											CHANNELS 3 Xrotation Yrotation Zrotation
											JOINT mixamorig:RightHandPinky4
											{
												OFFSET -1.668701 0.000000 0.000000
												CHANNELS 3 Xrotation Yrotation Zrotation
												End Site
												{
													OFFSET -1.668701 0.000000 0.000000
												}
											}
										}
									}
								}
							}
						}
					}
				}
			}
		}
	}
	JOINT mixamorig:RightUpLeg
	{
		OFFSET -9.940990 -5.272415 -1.010900
		CHANNELS 6 Xposition Yposition Zposition Xrotation Yrotation Zrotation
		JOINT mixamorig:RightLeg
		{
			OFFSET 0.000000 -43.345264 1.301677
			CHANNELS 3 Xrotation Yrotation Zrotation
			JOINT mixamorig:RightFoot
			{
				OFFSET 0.000000 -44.296967 -4.172008
				CHANNELS 3 Xrotation Yrotation Zrotation
				JOINT mixamorig:RightToeBase
				{
					OFFSET -2.597178 -13.215245 14.785532
					CHANNELS 3 Xrotation Yrotation Zrotation
					JOINT mixamorig:RightToe_End
					{
						OFFSET -1.307599 0.027390 9.914103
						CHANNELS 3 Xrotation Yrotation Zrotation
						End Site
						{
							OFFSET -1.307599 0.027390 9.914103
						}
					}
				}
			}
		}
	}
	JOINT mixamorig:LeftUpLeg
	{
		OFFSET 9.618309 -5.272285 -1.010900
		CHANNELS 6 Xposition Yposition Zposition Xrotation Yrotation Zrotation
		JOINT mixamorig:LeftLeg
		{
			OFFSET 0.000000 -43.345459 1.301683
			CHANNELS 3 Xrotation Yrotation Zrotation
			JOINT mixamorig:LeftFoot
			{
				OFFSET 0.000000 -44.296967 -4.172008
				CHANNELS 3 Xrotation Yrotation Zrotation
				JOINT mixamorig:LeftToeBase
				{
					OFFSET 2.597218 -13.215261 14.785510
					CHANNELS 3 Xrotation Yrotation Zrotation
					JOINT mixamorig:LeftToe_End
					{
						OFFSET 1.307524 0.027409 9.914113
						CHANNELS 3 Xrotation Yrotation Zrotation
						End Site
						{
							OFFSET 1.307524 0.027409 9.914112
						}
					}
				}
			}
		}
	}
}
MOTION
Frames: 4
Frame Time: 0.033333
-0.116285 97.558365 0.325796 3.701683 -3.433711 -2.236719 -0.038117 9.490496 -1.392099 2.851268 1.438838 1.448293 5.779067 3.296851 0.041290 5.779070 3.296852 0.041290 -0.056882 14.235788 -2.088089 -3.864352 -1.326554 -1.546571 0.000004 3.280201 0.313305 -9.239926 -1.726848 -0.954933 0.000030 25.653534 2.450523 -0.000000 -0.000000 -0.000000 6.728817 11.756568 -2.058486 -3.200161 -7.488089 -10.433755 30.064946 -10.085186 -69.255010 89.241729 -73.303612 98.832448 -1.216571 -27.660128 17.312219 4.173403 -1.926507 1.509010 5.010102 -0.240051 16.811971 17.050621 33.838813 -5.591736 -5.686359 -19.493138 -1.861344 -0.000003 -0.000006 -0.000000 14.669420 -0.398782 2.855496 7.338919 3.827324 -78.813983 5.569801 5.998126 -93.784925 2.299513 4.346797 -58.499013 0.000001 -0.000000 0.000003 14.409813 0.000006 -0.000007 1.878613 10.470660 -70.864142 4.891837 6.086514 -87.925073 2.661403 6.037655 -63.633300 0.000000 -0.000002 -0.000001 13.191511 0.321997 -3.304902 -0.874538 19.679288 -76.837483 5.931199 5.000135 -92.540123 3.492899 5.772861 -69.252012 -0.000000 -0.000000 -0.000000 11.636417 -0.516613 -5.614203 -6.204781 25.233514 -82.488939 3.255913 5.098003 -73.817106 6.526991 3.307220 -89.959752 -0.000002 -0.000002 0.000000 -6.728786 11.756700 -2.058488 -3.740006 15.876450 17.802430 7.676597 6.768411 60.993992 100.738843 46.473160 -108.896588 -5.677122 19.272933 -2.073750 -4.173405 -1.930954 1.503955 5.007292 0.239315 -16.816730 17.048442 -33.839817 5.588463 -5.904785 20.380234 2.630621 0.000000 0.000004 0.000002 -14.669429 -0.406440 2.854453 7.339418 -3.828290 78.807112 5.570715 -5.999004 93.784945 1.667032 -4.100335 62.122121 -0.000002 0.000000 -0.000000 -14.409813 0.000009 0.000001 1.878216 -10.470921 70.857141 4.892662 -6.087395 87.925087 -1.992600 -4.352681 67.041565 -0.000001 -0.000002 -0.000001 -13.191513 0.330675 -3.304049 -0.876028 -19.679185 76.830189 5.931991 -5.000987 92.540109 -2.836819 -3.600681 68.506681 0.000000 0.000005 -0.000000 -11.636431 -0.501493 -5.923332 -6.206908 -25.232853 82.481508 3.256520 -5.098840 73.817112 0.187127 -3.266731 81.669849 0.000001 -0.000002 -0.000000 -9.940991 -5.272410 -1.010901 -6.071315 -8.977641 9.808219 40.114121 -2.196002 -6.743044 -19.536619 0.450163 -2.584179 -25.379670 -2.841984 1.833475 -0.000001 -0.000001 -0.000000 9.618308 -5.272284 -1.010910 -31.095293 -2.389479 4.671447 78.570664 1.536481 0.129079 -1.356239 0.346648 2.270878 0.187003 -0.000000 -0.000002 -0.000001 0.000001 -0.000000 
0.185479 100.713844 7.032076 4.180976 -3.882215 -0.487647 -0.038116 9.490497 -1.392097 2.774581 1.992195 1.026559 5.659974 4.205855 -0.684559 5.659978 4.205853 -0.684558 -0.056883 14.235830 -2.088093 -2.404830 -1.374237 -2.340418 0.000004 3.280200 0.313300 -8.809284 -2.541707 0.777185 0.000030 25.653503 2.450523 -0.000001 -0.000000 -0.000000 6.728811 11.756600 -2.058491 -3.072310 -7.045500 -9.377045 35.711012 -9.902389 -67.674682 101.226101 -68.809129 112.003361 -0.999935 -23.843854 20.424738 4.173400 -1.926505 1.508998 5.010109 -0.240059 16.811966 16.212094 34.324542 -5.110010 -5.676689 -19.522313 -1.505351 -0.000000 0.000001 0.000005 14.669415 -0.398790 2.855483 7.349879 3.840535 -79.463152 5.609676 5.995347 -94.225199 2.332927 4.368869 -58.937641 0.000001 0.000002 -0.000002 14.409815 0.000013 -0.000019 2.094551 10.663987 -71.939029 5.020607 6.092177 -89.359010 2.806055 6.096070 -65.025757 0.000003 0.000001 0.000001 13.191513 0.321983 -3.304926 -0.501032 19.861550 -78.038900 5.990333 4.990927 -93.196401 3.565493 5.791480 -69.908912 0.000000 -0.000001 -0.000001 11.636404 -0.516625 -5.614224 -5.734215 25.497556 -83.555261 3.342480 5.130742 -74.800912 6.574936 3.283858 -90.941537 0.000003 -0.000001 0.000003 -6.728784 11.756721 -2.058495 -4.030238 17.034196 18.208624 5.725885 7.480533 60.918239 102.094109 43.786714 -111.308512 -6.113424 19.364911 0.152978 -4.173409 -1.930947 1.503957 5.007294 0.239315 -16.816737 16.595534 -34.224575 5.441497 -5.951925 20.284202 3.750665 -0.000004 0.000000 -0.000003 -14.669406 -0.406451 2.854454 7.283112 -3.829895 77.878862 5.475532 -6.004397 92.734967 1.592994 -4.035186 61.077314 -0.000001 -0.000001 -0.000000 -14.409814 0.000016 0.000006 1.809605 -10.416109 69.990280 4.859643 -6.085439 87.557172 -2.019417 -4.307054 66.677550 0.000000 -0.000001 0.000001 -13.191519 0.330669 -3.304051 -1.102672 -19.580235 75.899453 5.914302 -5.003642 92.342887 -2.836808 -3.600638 68.506709 -0.000003 0.000000 -0.000000 -11.636415 -0.501494 -5.923332 -6.394073 -24.808410 80.684239 3.188588 -5.071140 73.002045 0.148413 -3.195748 80.858662 -0.000000 0.000004 0.000001 -9.940993 -5.272410 -1.010900 -2.060647 -10.368447 6.902400 34.151424 0.493176 -7.783188 -4.943903 0.101796 -0.803053 -32.652382 -1.233612 1.330386 0.000000 0.000001 -0.000000 9.618309 -5.272277 -1.010905 -29.520856 -2.086196 2.570746 65.522585 5.900965 0.277724 -1.163532 1.015030 -3.595961 -1.555962 0.041144 -1.930451 -0.000002 -0.000001 0.000001 
0.550429 103.634621 13.793245 4.740075 -4.020051 1.129323 -0.038117 9.490477 -1.392097 2.693793 2.404575 0.498586 5.527059 4.855350 -1.528633 5.527058 4.855351 -1.528633 -0.056883 14.235816 -2.088082 -1.844249 -1.738655 -2.125203 0.000004 3.280229 0.313304 -8.585322 -3.046127 1.440399 0.000030 25.653503 2.450524 -0.000000 0.000000 0.000000 6.728817 11.756598 -2.058480 -3.202970 -6.204841 -10.235336 41.044167 -8.101636 -64.509231 111.371227 -65.093205 124.309047 -1.695898 -19.124740 19.291337 4.173400 -1.926507 1.508995 5.010109 -0.240057 16.811969 14.208809 35.464152 -3.950223 -5.663672 -19.560806 -1.035036 0.000002 -0.000006 -0.000002 14.669412 -0.398779 2.855479 7.294188 3.781640 -81.300616 5.650122 5.992214 -94.672166 2.367011 4.391013 -59.382949 0.000000 0.000003 0.000002 14.409830 0.000015 -0.000019 2.418002 10.914340 -73.961906 5.181577 6.094723 -91.149544 2.952405 6.151127 -66.421295 0.000001 0.000000 0.000002 13.191511 0.321980 -3.304924 0.092998 20.105017 -80.222867 6.060183 4.979119 -93.973035 3.651347 5.812175 -70.686304 0.000000 0.000000 -0.000001 11.636421 -0.516619 -5.614221 -5.009565 25.869522 -85.453562 3.438325 5.164105 -75.837537 6.624969 3.258326 -91.975901 -0.000004 -0.000000 0.000000 -6.728783 11.756720 -2.058485 -4.328124 18.172799 18.614431 3.784977 8.211394 60.979936 103.216596 41.338108 -113.622307 -6.491322 20.112044 2.445395 -4.173409 -1.930954 1.503945 5.007292 0.239314 -16.816735 15.875376 -34.835683 5.210242 -6.015957 20.144992 5.355757 0.000002 0.000003 -0.000003 -14.669425 -0.406437 2.854448 7.435051 -3.917807 75.993709 5.394082 -6.007642 91.836975 1.530640 -3.978429 60.183768 0.000002 0.000000 -0.000000 -14.409801 0.000015 -0.000005 1.786909 -10.283520 68.120379 4.829256 -6.083440 87.218374 -2.043863 -4.264876 66.342372 0.000001 -0.000002 -0.000000 -13.191508 0.330666 -3.304053 -1.539753 -19.377033 74.084651 5.901704 -5.005461 92.202588 -2.836788 -3.600596 68.506722 0.000005 0.000002 0.000001 -11.636430 -0.501502 -5.923338 -6.712330 -24.008678 77.225233 3.151273 -5.055466 72.553227 0.127591 -3.156472 80.412603 0.000002 -0.000001 -0.000001 -9.940991 -5.272419 -1.010899 3.160517 -12.164111 4.175430 24.161637 3.358726 -7.130098 13.250252 1.339765 0.118438 -45.103899 2.513046 0.274539 0.000000 0.000002 0.000000 9.618308 -5.272290 -1.010903 -27.280112 -1.923212 -0.343163 50.533858 11.190152 1.123010 -0.637368 0.847804 -4.034524 -3.953459 -0.244743 -4.438287 0.000002 0.000001 0.000000 
1.010866 105.472984 20.345089 6.899068 -3.634077 2.478575 -0.038116 9.490499 -1.392101 2.321544 2.660809 -0.182399 4.777671 5.191881 -2.202773 4.777675 5.191874 -2.202772 -0.056884 14.235799 -2.088086 -2.423408 -2.292411 -1.400647 0.000004 3.280196 0.313304 -8.514941 -3.340563 1.297488 0.000030 25.653519 2.450523 0.000000 0.000001 -0.000000 6.728819 11.756598 -2.058480 -3.371298 -5.135587 -11.508029 45.130687 -5.993775 -61.847875 119.423358 -61.746092 134.669105 -2.481081 -13.652544 16.263328 4.173399 -1.926507 1.508997 5.010106 -0.240052 16.811966 13.203510 36.025153 -3.363558 -5.661083 -19.564384 -0.969862 0.000005 -0.000005 0.000001 14.669404 -0.398780 2.855493 7.302440 3.790619 -81.907697 5.672432 5.990351 -94.918756 2.385946 4.403116 -59.628651 -0.000001 -0.000002 -0.000001 14.409803 0.000027 -0.000014 2.560359 11.031249 -74.452942 5.229440 6.094511 -91.682019 2.935879 6.145117 -66.265095 0.000000 0.000002 0.000003 13.191503 0.321997 -3.304914 0.293140 20.192443 -80.811711 6.074886 4.976496 -94.136734 3.669297 5.816236 -70.850167 0.000002 -0.000001 -0.000000 11.636411 -0.516628 -5.614210 -4.916750 25.914998 -85.885059 3.480097 5.177884 -76.279635 6.646160 3.247320 -92.416906 0.000000 0.000002 -0.000002 -6.728789 11.756696 -2.058485 -4.670787 19.512192 19.036535 1.479690 9.087539 61.204014 104.191326 38.631191 -116.097670 -7.000543 21.285069 5.170031 -4.173389 -1.930951 1.503939 5.007290 0.239312 -16.816735 16.052772 -34.685073 5.266712 -6.090919 19.966480 7.384661 0.000002 0.000001 0.000002 -14.669412 -0.406451 2.854445 7.820408 -4.146592 72.984840 5.287378 -6.009922 90.661404 1.450357 -3.902658 59.014317 0.000002 -0.000001 -0.000002 -14.409785 0.000001 -0.000004 1.699101 -10.069555 64.900874 4.776209 -6.079527 86.626948 -2.085925 -4.190985 65.757482 0.000001 0.000000 0.000001 -13.191499 0.330669 -3.304060 -2.221473 -19.026021 71.196553 5.879319 -5.008667 91.953771 -2.836775 -3.600554 68.506715 0.000002 0.000002 0.000001 -11.636408 -0.501473 -5.923339 -7.213927 -23.015002 72.719221 3.084361 -5.026431 71.742702 0.090706 -3.085133 79.606989 -0.000004 -0.000001 0.000000 -9.940991 -5.272408 -1.010899 7.562356 -14.222359 2.324169 11.952170 5.119809 -6.292370 31.199922 3.586518 4.851028 -56.461294 9.730680 -1.865554 0.000000 0.000001 0.000000 9.618307 -5.272286 -1.010908 -26.711625 -2.030499 -3.654567 35.074971 13.254458 2.585368 -1.995172 0.891177 -3.478160 0.721026 0.208117 -0.740084 -0.000001 0.000001 -0.000000 
